<svg width="225" height="36" viewBox="0 0 225 36" xmlns="http://www.w3.org/2000/svg"><title>logo-yellowtail</title><path d="M0 34.363V3.713h6.377v2.652H3.07v25.328h3.307v2.67zm26.796-4.81c-1.78 4.88-3.281 6.382-6.713 6.382a12.05 12.05 0 0 1-2.057-.216l.246-2.962c.676.257 1.284.35 1.995.35 1.53 0 2.382-.73 3.343-3.391l.604-1.672-5.695-15.62h3.673l2.483 7.14c.498 1.385.86 2.757 1.199 4.078h.03c.311-1.253.955-3.296 1.508-4.869l2.173-6.35h3.528l-6.317 17.13zM44.73 14.585c-1.839 0-3.128 1.394-3.402 3.498h6.466c.064-2.142-1.134-3.498-3.064-3.498m6.25 5.85h-9.713c-.096 3.621 1.467 5.253 4.506 5.253 1.562 0 3.181-.374 4.437-1.014l.312 2.69c-1.536.651-3.403.99-5.274.99-4.748 0-7.358-2.515-7.358-8.01 0-4.715 2.51-8.232 6.965-8.232 4.348 0 6.218 3.044 6.218 6.757-.001.436-.022.975-.093 1.567m10.95 7.609h-3.282V7.707a28.117 28.117 0 0 0-2.674-.306V5.318c1.717-.192 3.959-.314 5.956-.216v22.943zm12.261 0h-3.274V7.707a28.569 28.569 0 0 0-2.674-.306V5.318c1.713-.193 3.954-.314 5.948-.216v22.943zm14.498-13.096c-1.99 0-3.925 1.556-3.925 5.14 0 3.525 1.352 5.385 3.9 5.385 2.108 0 3.883-1.7 3.883-5.316 0-3.328-1.245-5.21-3.858-5.21m-.331 13.409c-4.24 0-6.995-2.42-6.995-7.92 0-4.725 2.964-8.324 7.6-8.324 4.08 0 6.956 2.324 6.956 7.828 0 4.813-3.056 8.416-7.561 8.416m31.416-.312h-3.609l-2.642-8.17c-.338-1.033-.613-2.108-.893-3.301h-.027a54.445 54.445 0 0 1-1.04 3.936l-2.296 7.534h-3.47l-4.69-15.62h3.586l2.026 7.257c.397 1.48.83 2.963 1.137 4.374h.027c.3-1.545.674-2.928 1.074-4.274l2.266-7.359h3.314l2.306 7.226c.575 1.894.885 3.055 1.188 4.407h.03a49.633 49.633 0 0 1 1.076-4.245l2.117-7.388h3.4l-4.88 15.623zm26.861.279c-3.251 0-4.235-1.285-4.235-4.775v-8.52h-2.912v-2.604h2.912v-4.97l3.25-.91v5.88h4.02v2.604h-3.988v7.484c0 2.33.46 2.964 1.989 2.964.678 0 1.416-.103 1.999-.262v2.766c-.891.186-2.027.343-3.035.343m18.141-7.35c-4.78 0-5.819 1.476-5.819 2.825 0 1.16.8 1.92 2.09 1.92 2.234 0 3.73-2.197 3.73-4.426v-.319zm.223 7.07c0-1.005.03-2.039.157-2.89l-.04-.027c-.736 1.858-2.631 3.23-5.058 3.23-2.605 0-4.258-1.508-4.258-3.991 0-3.584 3.494-5.649 8.975-5.649V17.71c0-1.958-.787-2.963-3.183-2.963-1.408 0-3.251.44-4.537 1.265l-.303-2.868a14.84 14.84 0 0 1 5.364-1.03c4.657 0 5.949 2.07 5.949 5.28v8.047c.73.118 1.779.248 2.665.313v2.075c-1.716.186-3.956.319-5.731.216zm14.773-17.951a2.102 2.102 0 0 1-2.085-2.098c0-1.168.955-2.113 2.085-2.113 1.173 0 2.113.918 2.113 2.113 0 1.165-.94 2.098-2.113 2.098zm1.631 17.952h-3.25V15.028a32.103 32.103 0 0 0-2.668-.305v-2.076c1.711-.195 3.925-.318 5.92-.222v15.62h-.002zm12.257 0h-3.283V7.707a27.962 27.962 0 0 0-2.66-.306V5.318c1.715-.193 3.95-.314 5.945-.216v22.943h-.001zm13.336 6.318v-2.67h3.307V6.365h-3.307V3.714h6.376v30.649zm13.477-30.685h.471c.547 0 1.013-.204 1.013-.727 0-.375-.264-.75-1.013-.75-.209 0-.358.017-.47.037v1.44zm0 2.345h-.663V1.78c.347-.053.68-.107 1.174-.107.626 0 1.034.134 1.285.325.25.188.378.475.378.882 0 .56-.362.897-.81 1.028v.036c.365.061.62.41.698 1.036.096.656.201.902.261 1.041h-.694c-.099-.139-.192-.518-.281-1.079-.097-.54-.363-.738-.886-.738h-.46v1.82h-.002zm.69-5.433c-1.64 0-2.97 1.44-2.97 3.221 0 1.808 1.33 3.234 2.982 3.234 1.658.019 2.977-1.426 2.977-3.215 0-1.8-1.319-3.24-2.977-3.24h-.013zm.012-.59c2.033 0 3.655 1.69 3.655 3.811 0 2.151-1.622 3.827-3.666 3.827-2.031 0-3.68-1.676-3.68-3.827 0-2.121 1.649-3.811 3.68-3.811h.011z" fill-rule="evenodd"/></svg>